# xmcd
#
# Track frame offsets:
#	150
#	14536
#	30704
#	46320
#	65223
#	87543
#	105702
#	125582
#	138688
#	158293
#	181695
#
# Disc length: 2684 seconds
#
# Revision: 0
# Processed by: cddbd v1.5.2PL0 Copyright (c) Steve Scherf et al.
# Submitted via: EasyCDDAExtractor 2011.0.0.0
#
DISCID=940a7a0b
DTITLE=Landstrom - In the Bright Daylight
DYEAR=2011
DGENRE=Folk-Rock
TTITLE0=Another Me
TTITLE1=Holyness
TTITLE2=Something's MIssing
TTITLE3=Everybody Blames It
TTITLE4=North
TTITLE5=Then the Train Came
TTITLE6=In the Bright Daylight
TTITLE7=Champagne
TTITLE8=The Tightrope Walker
TTITLE9=A Lullaby for Dreamers
TTITLE10=Down in the Hole/43
EXTD=
EXTT0=
EXTT1=
EXTT2=
EXTT3=
EXTT4=
EXTT5=
EXTT6=
EXTT7=
EXTT8=
EXTT9=
EXTT10=
PLAYORDER=
